<?xml version="1.0" standalone="no"?>
<!DOCTYPE svg PUBLIC "-//W3C//DTD SVG 20010904//EN"
 "http://www.w3.org/TR/2001/REC-SVG-20010904/DTD/svg10.dtd">
<svg version="1.0" xmlns="http://www.w3.org/2000/svg"
 width="24.000000pt" height="24.000000pt" viewBox="0 0 24.000000 24.000000"
 preserveAspectRatio="xMidYMid meet">

<g transform="translate(0.000000,24.000000) scale(0.100000,-0.100000)"
fill="#000000" stroke="none">
<path d="M12 228 c-16 -16 -16 -200 0 -216 16 -16 200 -16 216 0 16 16 16 200
0 216 -16 16 -200 16 -216 0z m72 -51 c0 -9 -1 -44 -2 -77 -2 -44 -6 -60 -16
-60 -11 0 -15 18 -18 71 -3 68 5 93 27 86 5 -2 10 -11 9 -20z m107 -48 c15
-29 7 -83 -13 -87 -13 -2 -17 5 -20 35 -4 49 -22 49 -26 0 -3 -30 -7 -37 -20
-35 -12 2 -18 15 -20 42 -5 55 1 64 47 64 31 1 44 -4 52 -19z"/>
</g>
</svg>
